<svg width="550" height="596" viewBox="0 0 550 596" fill="none" xmlns="http://www.w3.org/2000/svg">
<g clip-path="url(#clip0_346_2835)">
<path d="M71.606 405.762H40.1878V215.452H0L32.1973 183.975H71.606V405.762Z" fill="url(#paint0_linear_346_2835)"/>
<path d="M267.816 23.1444L313.059 0L298.165 55.0927L252.922 78.2371L267.816 23.1444Z" fill="#EB2D7C"/>
<path d="M461.869 75.9136H516.063L475.241 122.275H421.029L461.869 75.9136Z" fill="#F9DB02"/>
<path d="M505.482 154.478L550 173.755L499.992 198.461L455.474 179.183L505.482 154.478Z" fill="#B2D235"/>
<path d="M146.347 85.1895L169.883 54.9112L177.04 94.1387L153.504 124.417L146.347 85.1895Z" fill="#F9DB02"/>
<path d="M345.147 76.549L380.588 73.1544L356.707 105.157L321.267 108.552L345.147 76.549Z" fill="#AFE1F4"/>
<path d="M368.594 138.794L403.346 139.72L376.385 168.709L341.633 167.801L368.594 138.794Z" fill="#EB2D7C"/>
<path d="M412.206 159.633L445.998 163.209L417.678 190.165L383.904 186.589L412.206 159.633Z" fill="#EC2027"/>
<path d="M444.005 196.755L475.912 206.248L444.15 227.886L412.242 218.374L444.005 196.755Z" fill="#0961AE"/>
<path d="M458.59 244.278L494.23 262.684L452.357 281.98L416.717 263.592L458.59 244.278Z" fill="#EC2027"/>
<path d="M455.582 294.524L476.745 318.794L440.942 321.934L419.779 297.682L455.582 294.524Z" fill="#B2D235"/>
<path d="M490.534 356.805L507.656 384.015L472.596 381.855L455.474 354.645L490.534 356.805Z" fill="#AFE1F4"/>
<path d="M403.907 418.16L414.941 448.42L381.838 439.072L370.804 408.812L403.907 418.16Z" fill="#0961AE"/>
<path d="M70.7724 297.446L49.7363 280.673L77.4583 272.886L98.5125 289.659L70.7724 297.446Z" fill="#0961AE"/>
<path d="M76.0637 257.692L62.8369 234.131L90.9394 237.561L104.166 261.141L76.0637 257.692Z" fill="#AFE1F4"/>
<path d="M86.9346 196.192L91.3737 169.344L110.054 189.929L105.633 216.777L86.9346 196.192Z" fill="#B2D235"/>
<path d="M124.097 164.516L131.38 138.304L147.235 161.085L139.933 187.297L124.097 164.516Z" fill="#B2D235"/>
<path d="M180.465 132.658L196.754 111.311L202.026 138.703L185.756 160.05L180.465 132.658Z" fill="#0961AE"/>
<path d="M259.934 116.92L282.999 104.794L275.734 131.896L252.687 144.04L259.934 116.92Z" fill="#B2D235"/>
<path d="M319.473 145.111L344.333 143.15L327.246 165.26L302.369 167.221L319.473 145.111Z" fill="#F69320"/>
<path d="M378.812 219.754L401.243 226.18L379.138 241.537L356.707 235.129L378.812 219.754Z" fill="#B2D235"/>
<path d="M380.642 250.25L401.153 260.561L377.308 271.833L356.798 261.541L380.642 250.25Z" fill="#EB2D7C"/>
<path d="M375.913 278.513L393.905 292.327L369.064 299.243L351.072 285.448L375.913 278.513Z" fill="#F69320"/>
<path d="M413.583 319.012L428.585 335.821L403.527 338.271L388.524 321.462L413.583 319.012Z" fill="#B2D235"/>
<path d="M375.533 338.544L387.129 357.821L362.614 355.807L351 336.547L375.533 338.544Z" fill="#B2D235"/>
<path d="M370.514 368.023L378.45 389.116L355.185 382.799L347.249 361.706L370.514 368.023Z" fill="#B2D235"/>
<path d="M349.007 389.479L353.102 411.716L331.776 401.387L327.681 379.132L349.007 389.479Z" fill="#0961AE"/>
<path d="M312.606 436.059L309 458.531L293.291 441.395L296.879 418.923L312.606 436.059Z" fill="#B2D235"/>
<path d="M267.399 460.365L256.818 480.405L248.338 458.749L258.901 438.727L267.399 460.365Z" fill="#AFE1F4"/>
<path d="M173.127 451.833L153.739 460.819L160.932 438.473L180.32 429.487L173.127 451.833Z" fill="#B2D235"/>
<path d="M102.227 505.909L82.0791 511.355L92.7511 490.534L112.899 485.088L102.227 505.909Z" fill="#B2D235"/>
<path d="M97.6614 404.092L78.8721 398.828L97.3171 385.885L116.106 391.149L97.6614 404.092Z" fill="#F69320"/>
<path d="M68.4715 370.982L53.3604 359.51L74.1246 353.61L89.2358 365.064L68.4715 370.982Z" fill="#FCEE1F"/>
<path d="M164.81 273.213L163.723 263.755L173.126 269.746L174.214 279.203L164.81 273.213Z" fill="#0961AE"/>
<path d="M173.199 261.74L174.341 252.301L182.295 260.597L181.153 270.018L173.199 261.74Z" fill="#0961AE"/>
<path d="M184.596 252.682L187.948 243.86L193.945 253.989L190.593 262.811L184.596 252.682Z" fill="#0961AE"/>
<path d="M196.102 247.418L201.519 239.794L205.125 251.194L199.689 258.818L196.102 247.418Z" fill="#EC2027"/>
<path d="M207.824 244.605L215.036 238.687L215.942 250.649L208.73 256.585L207.824 244.605Z" fill="#0961AE"/>
<path d="M220.272 244.768L228.86 240.956L226.939 252.773L218.369 256.585L220.272 244.768Z" fill="#0961AE"/>
<path d="M232.502 247.781L241.96 246.383L237.268 257.293L227.81 258.673L232.502 247.781Z" fill="#0961AE"/>
<path d="M244.062 253.445L253.828 254.625L246.581 263.919L236.814 262.739L244.062 253.445Z" fill="#EC2027"/>
<path d="M254.915 262.34L264.373 266.061L254.951 273.122L245.493 269.383L254.915 262.34Z" fill="#0EA77F"/>
<path d="M263.794 274.048L272.346 280.183L261.293 284.485L252.741 278.35L263.794 274.048Z" fill="#0961AE"/>
<path d="M269.374 287.099L276.476 295.304L264.427 296.521L257.343 288.316L269.374 287.099Z" fill="#0961AE"/>
<path d="M271.584 301.077L276.73 310.915L264.427 308.882L259.3 299.044L271.584 301.077Z" fill="#0961AE"/>
<path d="M270.479 316.162L273.287 327.035L261.51 321.789L258.684 310.915L270.479 316.162Z" fill="#F9DB02"/>
<path d="M265.587 330.048L265.841 341.303L255.314 333.098L255.078 321.825L265.587 330.048Z" fill="#0961AE"/>
<path d="M258.031 341.575L255.64 352.521L247.069 341.775L249.479 330.829L258.031 341.575Z" fill="#0EA77F"/>
<path d="M247.795 351.196L242.83 361.143L236.814 348.473L241.779 338.544L247.795 351.196Z" fill="#0961AE"/>
<path d="M235.31 358.076L228.008 366.353L224.982 352.503L232.284 344.225L235.31 358.076Z" fill="#0961AE"/>
<path d="M220.942 361.652L211.701 367.715L211.955 353.519L221.195 347.456L220.942 361.652Z" fill="#0961AE"/>
<path d="M205.795 361.488L195.159 364.901L198.747 351.25L209.383 347.838L205.795 361.488Z" fill="#B2D235"/>
<path d="M190.104 357.132L178.707 357.585L185.484 345.351L196.898 344.897L190.104 357.132Z" fill="#0961AE"/>
<path d="M175.989 348.437L164.502 345.841L174.159 335.821L185.647 338.416L175.989 348.437Z" fill="#0961AE"/>
<path d="M164.773 336.184L153.92 330.611L165.915 323.495L176.768 329.068L164.773 336.184Z" fill="#0961AE"/>
<path d="M156.728 320.282L147.216 311.986L160.859 308.302L170.354 316.597L156.728 320.282Z" fill="#B2D235"/>
<path d="M153.503 303.981L144.661 294.342L159.193 292.999L168.035 302.638L153.503 303.981Z" fill="#0961AE"/>
<path d="M157.362 288.878L152.253 278.568L164.701 279.149L169.81 289.441L157.362 288.878Z" fill="#0EA77F"/>
<path d="M142.578 260.778L140.422 247.636L153.866 255.278L156.022 268.421L142.578 260.778Z" fill="#F69320"/>
<path d="M152.579 246.129L153.521 232.86L165.136 243.842L164.193 257.112L152.579 246.129Z" fill="#0961AE"/>
<path d="M169.702 239.231L173.779 226.652L182.784 240.357L178.725 252.937L169.702 239.231Z" fill="#0EA77F"/>
<path d="M183.327 225.109L190.339 214.036L196.101 229.683L189.089 240.756L183.327 225.109Z" fill="#EC2027"/>
<path d="M201.265 218.447L210.868 209.607L212.933 226.271L203.33 235.111L201.265 218.447Z" fill="#0EA77F"/>
<path d="M217.79 220.589L229.458 214.617L227.592 231.262L215.941 237.253L217.79 220.589Z" fill="#EC2027"/>
<path d="M241.127 214.998L254.154 212.311L248.374 227.922L235.347 230.591L241.127 214.998Z" fill="#0EA77F"/>
<path d="M257.76 223.421L271.403 224.328L261.963 237.87L248.338 236.98L257.76 223.421Z" fill="#0EA77F"/>
<path d="M269.012 243.479L282.402 247.981L269.809 258.564L256.401 254.062L269.012 243.479Z" fill="#0EA77F"/>
<path d="M281.695 259.362L293.997 267.295L278.922 274.157L266.638 266.242L281.695 259.362Z" fill="#EC2027"/>
<path d="M292.947 277.715L303.347 288.642L286.714 291.275L276.296 280.347L292.947 277.715Z" fill="#0EA77F"/>
<path d="M302.731 298.644L310.54 312.005L293.327 310.099L285.518 296.757L302.731 298.644Z" fill="#F9DB02"/>
<path d="M294.723 319.611L299.361 334.586L282.637 328.16L277.999 313.185L294.723 319.611Z" fill="#0EA77F"/>
<path d="M289.432 339.814L290.537 355.534L275.371 344.861L274.248 329.141L289.432 339.814Z" fill="#0EA77F"/>
<path d="M279.394 357.93L276.785 373.433L264.174 359.074L266.765 343.572L279.394 357.93Z" fill="#0EA77F"/>
<path d="M265.098 372.779L258.884 387.065L249.661 369.82L255.894 355.534L265.098 372.779Z" fill="#0EA77F"/>
<path d="M247.378 383.326L237.793 395.47L232.665 376.337L242.232 364.193L247.378 383.326Z" fill="#0EA77F"/>
<path d="M227.194 388.79L214.782 397.975L214.166 378.116L226.577 368.931L227.194 388.79Z" fill="#0961AE"/>
<path d="M205.795 388.699L191.245 394.272L195.304 374.903L209.853 369.33L205.795 388.699Z" fill="#EC2027"/>
<path d="M184.469 382.89L168.651 384.397L177.258 366.771L193.076 365.246L184.469 382.89Z" fill="#0EA77F"/>
<path d="M164.556 371.599L148.412 368.84L161.15 354.082L177.276 356.841L164.556 371.599Z" fill="#0EA77F"/>
<path d="M147.344 355.371L131.906 348.4L148.068 337.527L163.524 344.498L147.344 355.371Z" fill="#0961AE"/>
<path d="M134.008 335.095L120.237 324.239L138.918 318.049L152.688 328.905L134.008 335.095Z" fill="#0EA77F"/>
<path d="M112.011 316.016L92.3701 303.709L116.432 294.778L136.073 307.067L112.011 316.016Z" fill="#B2D235"/>
<path d="M120.436 287.444L110.362 271.888L131.362 274.139L141.418 289.695L120.436 287.444Z" fill="#EC2027"/>
<path d="M111.939 254.189L108.062 235.982L127.268 245.639L131.145 263.828L111.939 254.189Z" fill="#0EA77F"/>
<path d="M120.545 220.897L120.962 202.273L137.849 216.722L137.432 235.347L120.545 220.897Z" fill="#0961AE"/>
<path d="M145.042 214.272L149.843 196.373L163.288 214.853L158.486 232.751L145.042 214.272Z" fill="#EC2027"/>
<path d="M161.693 171.613L170.698 155.603L179.758 177.041L170.753 193.052L161.693 171.613Z" fill="#F9DB02"/>
<path d="M190.502 185.028L203.24 171.94L207.244 195.085L194.506 208.173L190.502 185.028Z" fill="#0961AE"/>
<path d="M223.116 127.231L241.96 116.176L240.221 144.149L221.377 155.185L223.116 127.231Z" fill="#B2D235"/>
<path d="M232.393 181.216L250.331 176.478L243.355 198.733L225.436 203.471L232.393 181.216Z" fill="#0961AE"/>
<path d="M348.862 182.723L380.715 194.631L347.956 220.988L316.103 209.08L348.862 182.723Z" fill="#F9DB02"/>
<path d="M289.848 217.539L308.765 222.803L291.968 238.56L273.07 233.296L289.848 217.539Z" fill="#EC2027"/>
<path d="M272.472 155.313L294.016 153.751L283.434 175.117L261.891 176.678L272.472 155.313Z" fill="#EC2027"/>
<path d="M320.995 235.056L338.607 245.185L318.151 255.95L300.539 245.821L320.995 235.056Z" fill="#0961AE"/>
<path d="M326.702 265.734L341.904 280.22L318.965 285.157L303.764 270.69L326.702 265.734Z" fill="#B2D235"/>
<path d="M286.714 181.634L308.692 177.967L298.473 198.207L276.477 201.855L286.714 181.634Z" fill="#B2D235"/>
<path d="M351.091 299.879L362.85 317.922L338.806 316.597L327.047 298.536L351.091 299.879Z" fill="#EC2027"/>
<path d="M326.739 322.188L334.203 342.773L310.54 335.076L303.075 314.492L326.739 322.188Z" fill="#B2D235"/>
<path d="M320.741 350.851L323.351 372.743L301.553 359.001L298.944 337.11L320.741 350.851Z" fill="#0961AE"/>
<path d="M308.04 376.954L305.485 398.828L286.968 379.713L289.523 357.858L308.04 376.954Z" fill="#B2D235"/>
<path d="M289.215 398.81L281.514 419.268L267.562 395.851L275.245 375.411L289.215 398.81Z" fill="#B2D235"/>
<path d="M265.279 414.911L252.813 432.628L244.388 406.289L256.853 388.572L265.279 414.911Z" fill="#0EA77F"/>
<path d="M237.63 424.096L221.015 437.91L218.822 410.191L235.437 396.377L237.63 424.096Z" fill="#EB2D7C"/>
<path d="M207.896 425.603L188.074 434.516L192.405 407.142L212.227 398.229L207.896 425.603Z" fill="#0EA77F"/>
<path d="M177.873 419.14L156.004 422.462L166.748 397.158L188.636 393.818L177.873 419.14Z" fill="#F69320"/>
<path d="M149.445 404.873L126.851 402.259L143.538 380.657L166.132 383.271L149.445 404.873Z" fill="#B2D235"/>
<path d="M124.459 383.525L102.517 374.957L124.241 358.529L146.183 367.079L124.459 383.525Z" fill="#0EA77F"/>
<path d="M104.546 356.206L84.6875 342.083L110.217 331.991L130.075 346.095L104.546 356.206Z" fill="#0EA77F"/>
<path d="M30.8388 335.603L10.9805 321.48L36.51 311.387L56.3684 325.492L30.8388 335.603Z" fill="#0EA77F"/>
<path d="M420.522 373.251V380.113H408.926V393.237C408.926 396.65 410.575 398.356 413.837 398.356C416.177 398.29 418.469 397.668 420.522 396.541V403.802C417.606 405.081 414.465 405.766 411.282 405.817C407.982 406.011 404.735 404.918 402.222 402.767C401.087 401.593 400.212 400.192 399.653 398.657C399.094 397.121 398.864 395.485 398.979 393.854V380.167H391.731L408.999 363.285V373.306L420.522 373.251Z" fill="#0961AE"/>
<path d="M435.85 357.967V377.934C437.007 376.313 438.528 374.986 440.29 374.062C442.053 373.139 444.008 372.643 445.997 372.616C447.581 372.538 449.164 372.796 450.641 373.375C452.118 373.954 453.456 374.84 454.567 375.974C456.748 378.378 457.888 381.551 457.738 384.796V405.127H447.7V386.974C447.7 382.309 445.888 379.986 442.518 379.986C440.308 379.986 438.073 381.601 435.814 384.832V405.163H425.812V357.967H435.85Z" fill="#0961AE"/>
<path d="M119.386 430.903L99.0742 432.719L112.826 414.04L133.138 412.224L119.386 430.903Z" fill="#FCEE1F"/>
<path d="M40.0244 466.845H52.2003V509.649H78.5815V519.578H40.0244V466.845Z" fill="white"/>
<path d="M126.181 509.758V519.542H85.4492V466.9H125.184V476.684H97.5345V488.138H121.977V497.614H97.5345V509.812L126.181 509.758Z" fill="white"/>
<path d="M170.481 508.251H146.093L141.491 519.542H129.007L152.453 466.9H164.484L188.038 519.542H175.264L170.481 508.251ZM166.64 498.993L158.341 478.79L149.989 498.957L166.64 498.993Z" fill="white"/>
<path d="M193.438 466.845H217.336C222.573 466.737 227.761 467.863 232.484 470.131C236.704 472.157 240.252 475.359 242.703 479.352C245.089 483.577 246.344 488.348 246.344 493.203C246.344 498.057 245.089 502.828 242.703 507.053C240.246 511.042 236.7 514.242 232.484 516.274C227.757 518.528 222.57 519.647 217.336 519.542H193.438V466.845ZM216.738 509.54C221.345 509.776 225.86 508.192 229.313 505.129C232.341 501.895 234.026 497.628 234.026 493.194C234.026 488.76 232.341 484.492 229.313 481.258C225.853 478.208 221.341 476.632 216.738 476.865H205.613V509.54H216.738Z" fill="white"/>
<path d="M255.513 466.845H267.689V519.487H255.513V466.845Z" fill="white"/>
<path d="M328.406 466.845V519.487H318.404L292.186 487.503V519.487H280.155V466.845H290.229L316.375 498.848V466.845H328.406Z" fill="white"/>
<path d="M376.421 492.368H387.546V513.751C384.558 515.977 381.203 517.661 377.635 518.725C373.96 519.858 370.137 520.439 366.292 520.449C361.167 520.536 356.101 519.331 351.561 516.946C347.307 514.722 343.751 511.361 341.288 507.234C338.854 502.957 337.574 498.117 337.574 493.194C337.574 488.27 338.854 483.43 341.288 479.153C343.769 475.015 347.352 471.652 351.634 469.441C356.23 467.066 361.339 465.863 366.51 465.938C370.808 465.881 375.075 466.677 379.066 468.279C382.707 469.759 385.947 472.079 388.524 475.05L380.715 482.311C378.993 480.415 376.891 478.906 374.546 477.883C372.2 476.86 369.665 476.346 367.107 476.375C364 476.309 360.927 477.033 358.175 478.481C355.616 479.83 353.502 481.891 352.087 484.417C350.59 487.111 349.833 490.156 349.894 493.239C349.838 496.293 350.595 499.307 352.087 501.97C353.501 504.498 355.599 506.574 358.139 507.961C360.849 509.418 363.887 510.155 366.963 510.103C370.255 510.151 373.507 509.371 376.421 507.833V492.368Z" fill="white"/>
<path d="M48.6853 535.788H40.0244V530.687H63.579V535.788H54.9544V557.716H48.7215L48.6853 535.788Z" fill="white"/>
<path d="M91.6271 530.687V557.716H85.3217V546.625H73.0733V557.716H66.8223V530.687H73.0733V541.343H85.3217V530.687H91.6271Z" fill="white"/>
<path d="M118.896 552.688V557.716H98.0049V530.687H118.389V535.716H104.202V541.579H116.722V546.444H104.202V552.688H118.896Z" fill="white"/>
<path d="M134.769 530.687H147.017C149.698 530.633 152.355 531.211 154.772 532.376C156.934 533.419 158.756 535.056 160.026 537.095C161.242 539.266 161.881 541.713 161.881 544.202C161.881 546.691 161.242 549.138 160.026 551.309C158.756 553.348 156.934 554.985 154.772 556.028C152.355 557.193 149.698 557.771 147.017 557.717H134.769V530.687ZM146.709 552.579C149.072 552.696 151.387 551.882 153.159 550.31C154.708 548.655 155.57 546.471 155.57 544.202C155.57 541.933 154.708 539.749 153.159 538.094C151.387 536.522 149.072 535.708 146.709 535.825H141.001V552.579H146.709Z" fill="white"/>
<path d="M166.585 530.687H172.818V557.716H166.585V530.687Z" fill="white"/>
<path d="M197.442 543.775H203.095V554.667C201.561 555.809 199.837 556.669 198.003 557.208C196.121 557.798 194.16 558.098 192.187 558.098C189.557 558.133 186.96 557.509 184.632 556.282C182.457 555.141 180.638 553.42 179.377 551.309C178.128 549.116 177.472 546.635 177.472 544.111C177.472 541.587 178.128 539.106 179.377 536.914C180.647 534.797 182.479 533.075 184.668 531.94C187.022 530.713 189.643 530.09 192.296 530.125C194.498 530.093 196.685 530.5 198.728 531.323C200.599 532.075 202.264 533.264 203.584 534.79L199.58 538.42C198.698 537.447 197.621 536.672 196.418 536.146C195.216 535.62 193.916 535.356 192.604 535.371C191.009 535.341 189.432 535.716 188.02 536.46C186.715 537.162 185.635 538.219 184.903 539.51C184.143 540.893 183.756 542.451 183.78 544.03C183.756 545.591 184.143 547.131 184.903 548.495C185.627 549.789 186.701 550.853 188.002 551.563C189.389 552.321 190.951 552.703 192.532 552.67C194.221 552.691 195.89 552.292 197.387 551.508L197.442 543.775Z" fill="white"/>
<path d="M208.911 530.687H215.162V557.716H208.911V530.687Z" fill="white"/>
<path d="M227.139 535.788H218.515V530.687H242.069V535.788H233.445V557.716H227.212L227.139 535.788Z" fill="white"/>
<path d="M261.764 551.926H249.244L246.852 557.716H240.456L252.487 530.687H258.647L270.697 557.716H264.156L261.764 551.926ZM259.807 547.17L255.531 536.877L251.255 547.206L259.807 547.17Z" fill="white"/>
<path d="M273.505 530.687H279.756V552.616H293.273V557.716H273.505V530.687Z" fill="white"/>
<path d="M328.551 552.688V557.716H307.678V530.687H328.116V535.716H313.929V541.579H326.449V546.444H313.929V552.688H328.551Z" fill="white"/>
<path d="M350.71 557.716L345.51 550.183H339.767V557.716H333.552V530.687H345.22C347.354 530.637 349.473 531.045 351.435 531.886C353.107 532.596 354.522 533.8 355.494 535.338C356.465 536.875 356.945 538.672 356.871 540.49C356.918 542.327 356.413 544.136 355.421 545.681C354.418 547.177 352.992 548.34 351.326 549.021L357.378 557.716H350.71ZM349.134 537.005C347.894 536.111 346.381 535.681 344.858 535.788H339.767V545.209H344.858C346.383 545.311 347.896 544.875 349.134 543.975C349.594 543.519 349.96 542.976 350.209 542.378C350.458 541.78 350.587 541.138 350.587 540.49C350.587 539.841 350.458 539.2 350.209 538.601C349.96 538.003 349.594 537.46 349.134 537.005Z" fill="white"/>
<path d="M379.591 551.926H367.071L364.679 557.716H358.283L370.314 530.687H376.475L388.524 557.716H381.983L379.591 551.926ZM377.634 547.17L373.413 536.877L369.136 547.206L377.634 547.17Z" fill="white"/>
<path d="M230.4 467.426L220.181 480.968L216.757 463.687L226.976 450.145L230.4 467.426Z" fill="#0961AE"/>
<path d="M353.79 428.362L354.007 451.071L335.236 437.075L335.019 414.385L353.79 428.362Z" fill="#0EA77F"/>
</g>
<defs>
<linearGradient id="paint0_linear_346_2835" x1="16.4701" y1="204.578" x2="78.1024" y2="345.194" gradientUnits="userSpaceOnUse">
<stop stop-color="#0956A4"/>
<stop offset="0.69" stop-color="#A63F4A"/>
<stop offset="1" stop-color="#E73625"/>
</linearGradient>
<clipPath id="clip0_346_2835">
<rect width="550" height="596" fill="white"/>
</clipPath>
</defs>
</svg>
