<svg xmlns="http://www.w3.org/2000/svg" width="15.5" height="15.293" viewBox="0 0 15.5 15.293"><defs><style>.a{fill:#ed1e24;}.b{fill:#efba1c;}.c{fill:#2460ad;}</style></defs><g transform="translate(-45.769 -53.13)"><path class="a" d="M47.6,149.091a11.727,11.727,0,0,1-.255-12.111,12.335,12.335,0,0,1,6.17,1.607C53.188,138.943,47.451,142.793,47.6,149.091Z" transform="translate(0 -80.668)"/><path class="b" d="M255.935,149.091a11.727,11.727,0,0,0,.255-12.111,12.335,12.335,0,0,0-6.17,1.607C250.352,138.943,256.089,142.793,255.935,149.091Z" transform="translate(-196.501 -80.668)"/><path class="c" d="M195.157,147.027a11.858,11.858,0,0,0-.9-4.471,8.808,8.808,0,0,0-1.166-2.1,9.574,9.574,0,0,1,2.884-2.314,13.747,13.747,0,0,1,3.275-1.039,11.594,11.594,0,0,1,2.172-.178s-3.187,1.955-4.445,3.978A15.026,15.026,0,0,0,195.157,147.027Z" transform="translate(-141.731 -80.618)"/><circle class="c" cx="1.377" cy="1.377" r="1.377" transform="translate(52.082 54.552)"/><circle class="b" cx="1.674" cy="1.674" r="1.674" transform="translate(54.947 53.13)"/><circle class="a" cx="1.674" cy="1.674" r="1.674" transform="translate(48.663 53.13)"/></g></svg>