<svg width="264" height="44" viewBox="0 0 264 44" fill="none" xmlns="http://www.w3.org/2000/svg">
<path d="M173.778 18.7062C173.524 17.635 173.08 16.7236 172.413 15.9402C171.492 14.901 170.317 14.2135 168.808 13.8297C167.426 13.462 165.378 13.2861 162.567 13.2861C159.502 13.2861 157.533 13.6539 156.135 14.1815C155.516 14.4053 154.833 14.901 154.341 15.3646V14.3254H150.387V35.1902H154.357V21.9358C154.357 18.4824 157.866 17.1074 161.376 17.1074H163.139C166.632 17.1074 170.189 18.4664 170.189 21.9358V35.1902H174.112V23.8065C174.096 21.2324 174.001 19.6495 173.778 18.7062Z" fill="white"/>
<path d="M106.858 13.2227H110.813C110.86 11.0803 110.924 9.04976 111.162 8.12243C111.353 7.19511 111.765 6.41168 112.353 5.80412C113.036 4.97272 114.005 4.36517 115.243 3.94947C116.434 3.6297 118.467 3.34191 121.135 3.29395H124.851L121.278 6.81139C121.151 6.81139 119.88 6.81139 119.769 6.81139C114.513 6.81139 114.878 10.2009 114.878 13.2067H124.136L120.388 17.0439H114.783L114.814 35.1588H110.813V17.0439H106.858V13.2227Z" fill="white"/>
<path d="M106.843 6.36328H102.889V10.4563H106.843V6.36328Z" fill="white"/>
<path d="M72.3186 24.2547C72.3186 26.7329 72.0327 28.7794 71.461 30.2983C70.8893 31.8812 68.9202 35.4786 59.3443 35.4786C49.7844 35.4786 47.8152 31.8972 47.2277 30.2983C46.656 28.7794 46.3701 26.7329 46.3701 24.2547C46.3701 21.7765 46.656 19.73 47.2277 18.2111C47.7993 16.6283 49.7685 13.0469 59.3443 13.0469C68.9043 13.0469 70.8735 16.6283 71.461 18.2111C72.0327 19.73 72.3186 21.7765 72.3186 24.2547ZM67.3163 19.4582C66.951 18.5629 66.3158 17.9713 65.3153 17.6355C64.2831 17.2998 62.4887 17.1079 59.3443 17.06C56.2 17.1079 54.4056 17.2998 53.3733 17.6355C52.3888 17.9873 51.7535 18.5629 51.3724 19.4582C51.0866 20.1457 50.7531 21.8245 50.7531 24.2547C50.7531 26.685 51.0866 28.3637 51.3724 29.0512C51.7377 29.9466 52.3729 30.5382 53.3733 30.8739C54.3897 31.2097 56.2 31.4015 59.3443 31.4495C62.4887 31.4015 64.2831 31.2097 65.3153 30.8739C66.2999 30.5222 66.9351 29.9466 67.3163 29.0512C67.618 28.3637 67.9356 26.685 67.9356 24.2547C67.9356 21.8245 67.6021 20.1457 67.3163 19.4582Z" fill="white"/>
<path d="M147.481 24.2547C147.481 26.7329 147.195 28.7794 146.623 30.2983C146.051 31.8812 144.082 35.4786 134.506 35.4786C124.946 35.4786 122.977 31.8972 122.39 30.2983C121.818 28.7794 121.532 26.7329 121.532 24.2547C121.532 21.7765 121.818 19.73 122.39 18.2111C122.961 16.6283 124.931 13.0469 134.506 13.0469C144.066 13.0469 146.036 16.6283 146.623 18.2111C147.195 19.73 147.481 21.7765 147.481 24.2547ZM142.478 19.4582C142.113 18.5629 141.478 17.9713 140.477 17.6355C139.461 17.2998 137.651 17.1079 134.506 17.06C131.362 17.1079 129.568 17.2998 128.535 17.6355C127.551 17.9873 126.916 18.5629 126.55 19.4582C126.249 20.1457 125.931 21.8245 125.931 24.2547C125.931 26.685 126.265 28.3637 126.55 29.0512C126.916 29.9466 127.551 30.5382 128.535 30.8739C129.568 31.2097 131.362 31.4015 134.506 31.4495C137.651 31.4015 139.445 31.2097 140.477 30.8739C141.462 30.5222 142.097 29.9466 142.478 29.0512C142.764 28.3637 143.098 26.685 143.098 24.2547C143.098 21.8245 142.764 20.1457 142.478 19.4582Z" fill="white"/>
<path d="M43.2104 18.674C42.9563 17.6027 42.5116 16.6914 41.8288 15.908C40.8918 14.8687 39.7167 14.1812 38.2081 13.7975C36.8106 13.4298 34.7938 13.2539 31.9671 13.2539C28.8863 13.2539 26.7901 13.5097 25.3768 14.0373C24.2175 14.469 23.2329 15.2525 22.5183 16.3237C21.6925 15.1885 20.6444 14.4211 19.3581 13.9894C17.8971 13.4937 15.1657 13.2539 11.7356 13.2539C9.16295 13.2539 7.38435 13.4458 6.32037 13.8135H6.30449C5.49459 14.1173 4.73234 14.6289 3.98596 15.3644V14.2932H0V35.158H3.9542V21.9036C3.9542 18.4501 7.44787 17.0751 10.9733 17.0751H12.736C16.2615 17.0751 19.7869 18.4341 19.7869 21.9036V35.158H23.7411V21.9036C23.7411 18.4501 27.1871 17.0751 30.7284 17.0751H32.4912C36.0166 17.0751 39.5579 18.4341 39.5579 21.9036V35.158H43.5121V23.7743C43.528 21.2001 43.4327 19.6173 43.2104 18.674Z" fill="white"/>
<path d="M200.489 25.7736H202.522C202.554 25.278 202.57 24.7823 202.57 24.2547C202.57 21.7765 202.284 19.73 201.712 18.2111C201.14 16.6283 199.171 13.0469 189.595 13.0469C180.035 13.0469 178.066 16.6283 177.479 18.2111C176.907 19.73 176.621 21.7765 176.621 24.2547C176.621 26.7329 176.907 28.7794 177.479 30.2983C178.05 31.8812 180.019 35.4786 189.595 35.4786C199.155 35.4786 201.124 31.8972 201.712 30.2983C201.76 30.1544 201.807 30.0105 201.855 29.8666H197.075C196.71 30.3143 196.217 30.6501 195.566 30.8739C194.534 31.2097 192.74 31.4015 189.595 31.4495C186.451 31.4015 184.641 31.2097 183.624 30.8739C182.64 30.5222 182.005 29.9466 181.623 29.0512C181.401 28.5236 181.147 27.4044 181.052 25.8056H200.489V25.7736ZM183.624 17.6196C184.641 17.2838 186.451 17.0919 189.595 17.044C192.74 17.0919 194.534 17.2838 195.566 17.6196C196.551 17.9713 197.186 18.5469 197.567 19.4422C197.758 19.8899 197.964 20.7693 198.091 22.0004H181.115C181.242 20.7693 181.449 19.8899 181.639 19.4422C181.989 18.5629 182.64 17.9713 183.624 17.6196Z" fill="white"/>
<path d="M106.843 13.2227H102.889V35.1587H106.843V13.2227Z" fill="white"/>
<path d="M99.2521 18.2107C98.6804 16.6279 96.7112 13.0305 87.1354 13.0305C83.467 13.0305 80.9262 13.5581 79.1476 14.2936V3.30957H75.1934V35.2224H79.1476V34.1991C80.9262 34.9346 83.467 35.4622 87.1354 35.4622C96.6953 35.4622 98.6645 31.8808 99.2521 30.2979C99.8237 28.7791 100.11 26.7325 100.11 24.2543C100.11 21.7761 99.8237 19.7296 99.2521 18.2107ZM95.1073 29.0508C94.742 29.9462 94.1068 30.5378 93.1064 30.8735C92.0741 31.2093 90.2797 31.4011 87.1354 31.4491C83.9911 31.4011 82.7524 31.2093 81.7202 30.8735C80.7356 30.5218 80.1004 29.9462 79.7193 29.0508C79.481 28.5072 79.227 27.3401 79.1317 25.6773V22.8314C79.227 21.1686 79.481 20.0014 79.7193 19.4578C80.0845 18.5625 80.7197 17.9709 81.7202 17.6352C82.7365 17.2994 83.9911 17.1075 87.1354 17.0596C90.2797 17.1075 92.0741 17.2994 93.1064 17.6352C94.0909 17.9869 94.7262 18.5625 95.1073 19.4578C95.3931 20.1453 95.7266 21.8241 95.7266 24.2543C95.7266 26.6846 95.3931 28.3474 95.1073 29.0508Z" fill="white"/>
<path fill-rule="evenodd" clip-rule="evenodd" d="M261.74 36.6613C260.612 39.4113 258.659 41.202 255.642 42.2573C252.513 43.2805 247.003 43.8561 237.379 44C227.756 43.8561 222.245 43.2645 219.117 42.2573C216.1 41.202 214.146 39.4113 213.019 36.6613C212.13 34.5509 211.113 29.4186 211.113 22C211.113 14.5974 212.114 9.44913 213.019 7.33866C214.146 4.58866 216.1 2.79797 219.117 1.74273C222.245 0.735465 227.756 0.143895 237.379 0C247.003 0.143895 252.513 0.735465 255.642 1.74273C258.659 2.79797 260.612 4.58866 261.74 7.33866C262.629 9.44913 263.645 14.5814 263.645 22C263.645 29.4026 262.629 34.5509 261.74 36.6613ZM227.438 12.9981C229.248 12.9981 230.725 11.5112 230.725 9.6885C230.725 7.86582 229.248 6.37891 227.438 6.37891C225.627 6.37891 224.15 7.86582 224.15 9.6885C224.15 11.5112 225.611 12.9981 227.438 12.9981ZM236.855 15.0927C236.458 14.725 236.712 14.0695 237.252 14.0695V14.0375H241.46C241.714 14.0375 241.92 13.8296 241.92 13.5738V7.45028C241.92 6.97063 242.302 6.58691 242.778 6.58691H246.891C247.367 6.58691 247.749 6.97063 247.749 7.45028V13.5738C247.749 13.8296 247.955 14.0375 248.209 14.0375H252.719C253.196 14.0375 253.577 14.4212 253.577 14.9009V19.0419C253.577 19.5215 253.196 19.9052 252.719 19.9052H248.225C247.971 19.9052 247.764 20.1131 247.764 20.3689V29.2105C247.764 29.4183 247.939 29.5942 248.146 29.5942H252.719C253.196 29.5942 253.577 29.9779 253.577 30.4576V34.5985C253.577 35.0782 253.196 35.4619 252.719 35.4619H247.225H246.43C243.953 35.4619 241.952 33.4474 241.952 30.9532V29.6102V20.3529C241.952 20.0811 241.841 19.8093 241.635 19.6174L236.855 15.0927ZM225.373 14.0693H229.883C230.169 14.0693 230.455 14.1813 230.677 14.3891L235.457 18.8978C235.838 19.2656 235.584 19.9371 235.044 19.9371H230.741C230.518 19.9371 230.344 20.1129 230.344 20.3368V34.6144C230.344 35.094 229.963 35.4778 229.486 35.4778H225.373C224.897 35.4778 224.516 35.094 224.516 34.6144V14.9327C224.516 14.4531 224.897 14.0693 225.373 14.0693Z" fill="white"/>
</svg>
